# xmcd
#
# Track frame offsets: 
#        150
#        14939
#        29301
#        45955
#        63973
#        79497
#        94319
#        117517
#        138145
#        151904
#
# Disc length: 2274 seconds
#
# Revision: 1
# Processed by: cddbd v1.5.2PL0 Copyright (c) Steve Scherf et al.
# Submitted via: ExactAudioCopyFreeDBPlugin 1.0
#
DISCID=8008e00a
DTITLE=Aaron Lordson - Because of you
DYEAR=2011
DGENRE=Soul
TTITLE0=Because of you
TTITLE1=Let it be
TTITLE2=Hey Joe
TTITLE3=Please don´t leave me
TTITLE4=When love is true
TTITLE5=I´m in love with you
TTITLE6=Lean on me
TTITLE7=My way
TTITLE8=Living from the street
TTITLE9=Stand by me
EXTD=
EXTT0=
EXTT1=
EXTT2=
EXTT3=
EXTT4=
EXTT5=
EXTT6=
EXTT7=
EXTT8=
EXTT9=
PLAYORDER=
